<mxfile host="app.diagrams.net" modified="2023-10-23T06:48:34.552Z" agent="Mozilla/5.0 (Windows NT 10.0; Win64; x64) AppleWebKit/537.36 (KHTML, like Gecko) Chrome/118.0.0.0 Safari/537.36" etag="Q0I-02zqvrezvACqMDoK" version="22.0.6" type="github">
  <diagram name="Page-1" id="Qwv7uJTL_FpW3jfT5c1Q">
    <mxGraphModel dx="1563" dy="567" grid="1" gridSize="10" guides="1" tooltips="1" connect="1" arrows="1" fold="1" page="1" pageScale="1" pageWidth="827" pageHeight="1169" math="0" shadow="0">
      <root>
        <mxCell id="0" />
        <mxCell id="1" parent="0" />
        <mxCell id="PQJejVP98IKGqgHeFBoo-32" value="" style="rounded=0;whiteSpace=wrap;html=1;fillColor=none;" parent="1" vertex="1">
          <mxGeometry x="110" y="740" width="520" height="350" as="geometry" />
        </mxCell>
        <mxCell id="PQJejVP98IKGqgHeFBoo-33" style="edgeStyle=orthogonalEdgeStyle;rounded=0;orthogonalLoop=1;jettySize=auto;html=1;entryX=0.5;entryY=1;entryDx=0;entryDy=0;exitX=0.75;exitY=0;exitDx=0;exitDy=0;startArrow=classic;startFill=1;" parent="1" source="PQJejVP98IKGqgHeFBoo-3" target="PQJejVP98IKGqgHeFBoo-8" edge="1">
          <mxGeometry relative="1" as="geometry" />
        </mxCell>
        <mxCell id="PQJejVP98IKGqgHeFBoo-38" value="Modbus TCP" style="edgeLabel;html=1;align=center;verticalAlign=middle;resizable=0;points=[];" parent="PQJejVP98IKGqgHeFBoo-33" vertex="1" connectable="0">
          <mxGeometry x="-0.3146" y="1" relative="1" as="geometry">
            <mxPoint x="27" as="offset" />
          </mxGeometry>
        </mxCell>
        <mxCell id="PQJejVP98IKGqgHeFBoo-34" style="edgeStyle=orthogonalEdgeStyle;rounded=0;orthogonalLoop=1;jettySize=auto;html=1;exitX=0.25;exitY=0;exitDx=0;exitDy=0;startArrow=classic;startFill=1;" parent="1" source="PQJejVP98IKGqgHeFBoo-3" target="PQJejVP98IKGqgHeFBoo-9" edge="1">
          <mxGeometry relative="1" as="geometry" />
        </mxCell>
        <mxCell id="PQJejVP98IKGqgHeFBoo-3" value="Система управления СНЭЭ" style="rounded=0;whiteSpace=wrap;html=1;" parent="1" vertex="1">
          <mxGeometry x="294" y="890" width="120" height="60" as="geometry" />
        </mxCell>
        <mxCell id="PQJejVP98IKGqgHeFBoo-15" style="edgeStyle=orthogonalEdgeStyle;rounded=0;orthogonalLoop=1;jettySize=auto;html=1;entryX=0.156;entryY=1.025;entryDx=0;entryDy=0;entryPerimeter=0;exitX=0.5;exitY=0;exitDx=0;exitDy=0;" parent="1" source="PQJejVP98IKGqgHeFBoo-4" target="PQJejVP98IKGqgHeFBoo-3" edge="1">
          <mxGeometry relative="1" as="geometry" />
        </mxCell>
        <mxCell id="PQJejVP98IKGqgHeFBoo-18" value="Modbus TCP" style="edgeLabel;html=1;align=center;verticalAlign=middle;resizable=0;points=[];" parent="PQJejVP98IKGqgHeFBoo-15" vertex="1" connectable="0">
          <mxGeometry x="-0.2542" y="-1" relative="1" as="geometry">
            <mxPoint x="12" as="offset" />
          </mxGeometry>
        </mxCell>
        <mxCell id="PQJejVP98IKGqgHeFBoo-4" value="Подсистема преобразования (инвертор)" style="rounded=0;whiteSpace=wrap;html=1;" parent="1" vertex="1">
          <mxGeometry x="160" y="1000" width="120" height="60" as="geometry" />
        </mxCell>
        <mxCell id="PQJejVP98IKGqgHeFBoo-16" style="edgeStyle=orthogonalEdgeStyle;rounded=0;orthogonalLoop=1;jettySize=auto;html=1;entryX=0.5;entryY=1;entryDx=0;entryDy=0;" parent="1" source="PQJejVP98IKGqgHeFBoo-5" target="PQJejVP98IKGqgHeFBoo-3" edge="1">
          <mxGeometry relative="1" as="geometry" />
        </mxCell>
        <mxCell id="PQJejVP98IKGqgHeFBoo-19" value="Modbus TCP" style="edgeLabel;html=1;align=center;verticalAlign=middle;resizable=0;points=[];" parent="PQJejVP98IKGqgHeFBoo-16" vertex="1" connectable="0">
          <mxGeometry x="-0.2779" y="1" relative="1" as="geometry">
            <mxPoint as="offset" />
          </mxGeometry>
        </mxCell>
        <mxCell id="PQJejVP98IKGqgHeFBoo-5" value="Подсистема накопления (BMS)" style="rounded=0;whiteSpace=wrap;html=1;" parent="1" vertex="1">
          <mxGeometry x="294" y="1000" width="120" height="60" as="geometry" />
        </mxCell>
        <mxCell id="PQJejVP98IKGqgHeFBoo-17" style="edgeStyle=orthogonalEdgeStyle;rounded=0;orthogonalLoop=1;jettySize=auto;html=1;entryX=0.75;entryY=1;entryDx=0;entryDy=0;exitX=0.5;exitY=0;exitDx=0;exitDy=0;" parent="1" source="PQJejVP98IKGqgHeFBoo-6" target="PQJejVP98IKGqgHeFBoo-3" edge="1">
          <mxGeometry relative="1" as="geometry" />
        </mxCell>
        <mxCell id="PQJejVP98IKGqgHeFBoo-20" value="Протокол счетчика" style="edgeLabel;html=1;align=center;verticalAlign=middle;resizable=0;points=[];" parent="PQJejVP98IKGqgHeFBoo-17" vertex="1" connectable="0">
          <mxGeometry x="0.0478" relative="1" as="geometry">
            <mxPoint as="offset" />
          </mxGeometry>
        </mxCell>
        <mxCell id="PQJejVP98IKGqgHeFBoo-6" value="Собственные нужды, учет электроэнергии" style="rounded=0;whiteSpace=wrap;html=1;" parent="1" vertex="1">
          <mxGeometry x="440" y="1000" width="120" height="60" as="geometry" />
        </mxCell>
        <mxCell id="PQJejVP98IKGqgHeFBoo-14" style="edgeStyle=orthogonalEdgeStyle;rounded=0;orthogonalLoop=1;jettySize=auto;html=1;startArrow=classic;startFill=1;" parent="1" source="PQJejVP98IKGqgHeFBoo-7" target="PQJejVP98IKGqgHeFBoo-3" edge="1">
          <mxGeometry relative="1" as="geometry" />
        </mxCell>
        <mxCell id="PQJejVP98IKGqgHeFBoo-37" value="Протокол" style="edgeLabel;html=1;align=center;verticalAlign=middle;resizable=0;points=[];" parent="PQJejVP98IKGqgHeFBoo-14" vertex="1" connectable="0">
          <mxGeometry x="0.1441" y="-2" relative="1" as="geometry">
            <mxPoint as="offset" />
          </mxGeometry>
        </mxCell>
        <mxCell id="PQJejVP98IKGqgHeFBoo-7" value="ТП-1410&amp;nbsp;" style="rounded=0;whiteSpace=wrap;html=1;" parent="1" vertex="1">
          <mxGeometry x="670" y="890" width="120" height="60" as="geometry" />
        </mxCell>
        <mxCell id="PQJejVP98IKGqgHeFBoo-8" value="ПТК AMIGO EDGE" style="rounded=0;whiteSpace=wrap;html=1;" parent="1" vertex="1">
          <mxGeometry x="440" y="760" width="120" height="60" as="geometry" />
        </mxCell>
        <mxCell id="PQJejVP98IKGqgHeFBoo-24" style="rounded=0;orthogonalLoop=1;jettySize=auto;html=1;entryX=0.434;entryY=0.92;entryDx=0;entryDy=0;entryPerimeter=0;" parent="1" source="PQJejVP98IKGqgHeFBoo-9" target="PQJejVP98IKGqgHeFBoo-23" edge="1">
          <mxGeometry relative="1" as="geometry" />
        </mxCell>
        <mxCell id="Ke0dHRgDIPxI2c3PWkCL-2" value="104 протокол" style="edgeLabel;html=1;align=center;verticalAlign=middle;resizable=0;points=[];" vertex="1" connectable="0" parent="PQJejVP98IKGqgHeFBoo-24">
          <mxGeometry x="0.1679" y="-1" relative="1" as="geometry">
            <mxPoint x="50" y="-8" as="offset" />
          </mxGeometry>
        </mxCell>
        <mxCell id="PQJejVP98IKGqgHeFBoo-25" style="rounded=0;orthogonalLoop=1;jettySize=auto;html=1;exitX=0.347;exitY=0.013;exitDx=0;exitDy=0;exitPerimeter=0;entryX=0.231;entryY=0.804;entryDx=0;entryDy=0;entryPerimeter=0;" parent="1" source="PQJejVP98IKGqgHeFBoo-9" target="PQJejVP98IKGqgHeFBoo-23" edge="1">
          <mxGeometry relative="1" as="geometry" />
        </mxCell>
        <mxCell id="PQJejVP98IKGqgHeFBoo-9" value="Шкаф информационной безопасности" style="rounded=0;whiteSpace=wrap;html=1;" parent="1" vertex="1">
          <mxGeometry x="140" y="760" width="120" height="60" as="geometry" />
        </mxCell>
        <mxCell id="PQJejVP98IKGqgHeFBoo-10" value="ДП Филиала ПАО &quot;Россети Ленэнерго&quot; &quot;ЮЭС&quot;" style="rounded=0;whiteSpace=wrap;html=1;" parent="1" vertex="1">
          <mxGeometry x="140" y="546.5" width="120" height="60" as="geometry" />
        </mxCell>
        <mxCell id="PQJejVP98IKGqgHeFBoo-11" value="ЦУС ПАО &quot;Россети Ленэнерго&quot;" style="rounded=0;whiteSpace=wrap;html=1;" parent="1" vertex="1">
          <mxGeometry x="290" y="546.5" width="120" height="60" as="geometry" />
        </mxCell>
        <mxCell id="PQJejVP98IKGqgHeFBoo-22" value="Amigo aggregator&lt;br&gt;(https://amigo-aggregator.rtsoft.ru/&lt;br&gt;aggregator)" style="rounded=0;whiteSpace=wrap;html=1;" parent="1" vertex="1">
          <mxGeometry x="440" y="570" width="120" height="60" as="geometry" />
        </mxCell>
        <mxCell id="PQJejVP98IKGqgHeFBoo-26" style="edgeStyle=orthogonalEdgeStyle;rounded=0;orthogonalLoop=1;jettySize=auto;html=1;entryX=0.781;entryY=0.999;entryDx=0;entryDy=0;entryPerimeter=0;exitX=0.502;exitY=0.102;exitDx=0;exitDy=0;exitPerimeter=0;" parent="1" source="PQJejVP98IKGqgHeFBoo-23" target="PQJejVP98IKGqgHeFBoo-10" edge="1">
          <mxGeometry relative="1" as="geometry" />
        </mxCell>
        <mxCell id="PQJejVP98IKGqgHeFBoo-39" value="60870-5-101, 104&lt;br&gt;МЭК 61850-8-1" style="edgeLabel;html=1;align=center;verticalAlign=middle;resizable=0;points=[];" parent="PQJejVP98IKGqgHeFBoo-26" vertex="1" connectable="0">
          <mxGeometry x="-0.0429" y="1" relative="1" as="geometry">
            <mxPoint as="offset" />
          </mxGeometry>
        </mxCell>
        <mxCell id="PQJejVP98IKGqgHeFBoo-27" style="edgeStyle=orthogonalEdgeStyle;rounded=0;orthogonalLoop=1;jettySize=auto;html=1;entryX=0.5;entryY=1;entryDx=0;entryDy=0;startArrow=classic;startFill=1;exitX=0.875;exitY=0.5;exitDx=0;exitDy=0;exitPerimeter=0;" parent="1" source="PQJejVP98IKGqgHeFBoo-23" target="PQJejVP98IKGqgHeFBoo-22" edge="1">
          <mxGeometry relative="1" as="geometry" />
        </mxCell>
        <mxCell id="PQJejVP98IKGqgHeFBoo-29" value="REST API" style="edgeLabel;html=1;align=center;verticalAlign=middle;resizable=0;points=[];" parent="PQJejVP98IKGqgHeFBoo-27" vertex="1" connectable="0">
          <mxGeometry x="0.0868" y="-1" relative="1" as="geometry">
            <mxPoint as="offset" />
          </mxGeometry>
        </mxCell>
        <mxCell id="PQJejVP98IKGqgHeFBoo-28" style="edgeStyle=orthogonalEdgeStyle;rounded=0;orthogonalLoop=1;jettySize=auto;html=1;entryX=0.5;entryY=1;entryDx=0;entryDy=0;exitX=0.88;exitY=0.25;exitDx=0;exitDy=0;exitPerimeter=0;" parent="1" source="PQJejVP98IKGqgHeFBoo-23" target="PQJejVP98IKGqgHeFBoo-11" edge="1">
          <mxGeometry relative="1" as="geometry">
            <Array as="points">
              <mxPoint x="314" y="660" />
              <mxPoint x="314" y="627" />
              <mxPoint x="350" y="627" />
            </Array>
          </mxGeometry>
        </mxCell>
        <mxCell id="PQJejVP98IKGqgHeFBoo-40" value="60870-5-101, 104&lt;br style=&quot;border-color: var(--border-color);&quot;&gt;МЭК 61850-8-1" style="edgeLabel;html=1;align=center;verticalAlign=middle;resizable=0;points=[];" parent="PQJejVP98IKGqgHeFBoo-28" vertex="1" connectable="0">
          <mxGeometry x="-0.2448" y="-1" relative="1" as="geometry">
            <mxPoint x="15" y="-7" as="offset" />
          </mxGeometry>
        </mxCell>
        <mxCell id="PQJejVP98IKGqgHeFBoo-31" style="edgeStyle=orthogonalEdgeStyle;rounded=0;orthogonalLoop=1;jettySize=auto;html=1;entryX=0.5;entryY=1;entryDx=0;entryDy=0;exitX=0.083;exitY=0.499;exitDx=0;exitDy=0;exitPerimeter=0;" parent="1" source="PQJejVP98IKGqgHeFBoo-23" target="PQJejVP98IKGqgHeFBoo-30" edge="1">
          <mxGeometry relative="1" as="geometry" />
        </mxCell>
        <mxCell id="PQJejVP98IKGqgHeFBoo-41" value="http" style="edgeLabel;html=1;align=center;verticalAlign=middle;resizable=0;points=[];" parent="PQJejVP98IKGqgHeFBoo-31" vertex="1" connectable="0">
          <mxGeometry x="-0.1648" y="2" relative="1" as="geometry">
            <mxPoint as="offset" />
          </mxGeometry>
        </mxCell>
        <mxCell id="PQJejVP98IKGqgHeFBoo-23" value="GSM-каналы &lt;br&gt;связи" style="ellipse;shape=cloud;whiteSpace=wrap;html=1;" parent="1" vertex="1">
          <mxGeometry x="174" y="640" width="120" height="80" as="geometry" />
        </mxCell>
        <mxCell id="PQJejVP98IKGqgHeFBoo-30" value="АРМ диспетчера&lt;br&gt;(интерфейс ПТК)" style="rounded=0;whiteSpace=wrap;html=1;" parent="1" vertex="1">
          <mxGeometry y="570" width="120" height="60" as="geometry" />
        </mxCell>
        <mxCell id="PQJejVP98IKGqgHeFBoo-35" value="Контейнер СНЭЭ" style="text;html=1;strokeColor=none;fillColor=none;align=center;verticalAlign=middle;whiteSpace=wrap;rounded=0;" parent="1" vertex="1">
          <mxGeometry x="630" y="800" width="110" height="30" as="geometry" />
        </mxCell>
        <mxCell id="PQJejVP98IKGqgHeFBoo-36" value="GSM-канал связи (осн.)(рез.)" style="text;html=1;strokeColor=none;fillColor=none;align=center;verticalAlign=middle;whiteSpace=wrap;rounded=0;" parent="1" vertex="1">
          <mxGeometry x="70" y="710" width="110" height="30" as="geometry" />
        </mxCell>
        <mxCell id="Ke0dHRgDIPxI2c3PWkCL-8" style="edgeStyle=orthogonalEdgeStyle;rounded=0;orthogonalLoop=1;jettySize=auto;html=1;entryX=0.5;entryY=1;entryDx=0;entryDy=0;" edge="1" parent="1" source="Ke0dHRgDIPxI2c3PWkCL-3" target="Ke0dHRgDIPxI2c3PWkCL-4">
          <mxGeometry relative="1" as="geometry" />
        </mxCell>
        <mxCell id="Ke0dHRgDIPxI2c3PWkCL-3" value="Пирамида" style="rounded=0;whiteSpace=wrap;html=1;" vertex="1" parent="1">
          <mxGeometry x="827" y="546.5" width="120" height="60" as="geometry" />
        </mxCell>
        <mxCell id="Ke0dHRgDIPxI2c3PWkCL-9" style="edgeStyle=orthogonalEdgeStyle;rounded=0;orthogonalLoop=1;jettySize=auto;html=1;entryX=1;entryY=0.5;entryDx=0;entryDy=0;" edge="1" parent="1" source="Ke0dHRgDIPxI2c3PWkCL-4" target="Ke0dHRgDIPxI2c3PWkCL-5">
          <mxGeometry relative="1" as="geometry" />
        </mxCell>
        <mxCell id="Ke0dHRgDIPxI2c3PWkCL-4" value="Почтовый сервер" style="rounded=0;whiteSpace=wrap;html=1;" vertex="1" parent="1">
          <mxGeometry x="670" y="486.5" width="120" height="60" as="geometry" />
        </mxCell>
        <mxCell id="Ke0dHRgDIPxI2c3PWkCL-6" style="edgeStyle=orthogonalEdgeStyle;rounded=0;orthogonalLoop=1;jettySize=auto;html=1;entryX=0.5;entryY=0;entryDx=0;entryDy=0;startArrow=classic;startFill=1;" edge="1" parent="1" source="Ke0dHRgDIPxI2c3PWkCL-5" target="PQJejVP98IKGqgHeFBoo-8">
          <mxGeometry relative="1" as="geometry">
            <Array as="points">
              <mxPoint x="620" y="700" />
              <mxPoint x="500" y="700" />
            </Array>
          </mxGeometry>
        </mxCell>
        <mxCell id="Ke0dHRgDIPxI2c3PWkCL-7" value="VPN-туннель" style="edgeLabel;html=1;align=center;verticalAlign=middle;resizable=0;points=[];" vertex="1" connectable="0" parent="Ke0dHRgDIPxI2c3PWkCL-6">
          <mxGeometry x="-0.0247" y="-1" relative="1" as="geometry">
            <mxPoint as="offset" />
          </mxGeometry>
        </mxCell>
        <mxCell id="Ke0dHRgDIPxI2c3PWkCL-5" value="AMIGO FLEX" style="rounded=0;whiteSpace=wrap;html=1;" vertex="1" parent="1">
          <mxGeometry x="560" y="410" width="120" height="60" as="geometry" />
        </mxCell>
        <mxCell id="Ke0dHRgDIPxI2c3PWkCL-10" value="Энергосбытхолдинг" style="rounded=0;whiteSpace=wrap;html=1;" vertex="1" parent="1">
          <mxGeometry x="770" y="390" width="120" height="60" as="geometry" />
        </mxCell>
      </root>
    </mxGraphModel>
  </diagram>
</mxfile>
